#N canvas 500 22 295 235 10;
#X declare -lib py -path src;
#X text 18 172 2009 mark edward grimm megrimm.net;
#X obj 171 68 inlet;
#X obj 18 69 inlet;
#X obj 18 132 outlet;
#X obj 18 30 declare -lib py -path src;
#X obj 18 100 pyext datyahoo stocks;
#X connect 1 0 5 1;
#X connect 2 0 5 0;
#X connect 5 0 3 0;
