#N canvas 500 22 527 791 10;
#X declare -lib py;
#X obj 52 395 py;
#X obj 30 548 print 1;
#X symbolatom 83 274 10 0 0 0 - - -, f 10;
#X obj 82 251 bng 15 250 50 0 empty empty empty 17 7 0 10 -262144 -1
-1;
#X msg 139 336 aig;
#X msg 122 315 aapl;
#X msg 103 293 GOOG;
#X msg 99 250 set GOOG;
#X msg 202 32 weekhigh goog;
#X msg 52 429 reload.;
#X msg 210 52 weeklow goog;
#X floatatom 63 525 20 0 0 0 - - -, f 20;
#X msg 216 74 change goog;
#X msg 223 96 volume gld;
#X msg 227 117 avg_daily_volume goog;
#X msg 240 160 market_cap goog;
#X msg 246 182 book_value goog;
#X symbolatom 88 502 10 0 0 0 - - -, f 10;
#X msg 233 139 stock_exchange goog;
#X msg 254 203 ebitda goog;
#X msg 260 223 dividend_per_share goog;
#X msg 268 243 dividend_yield goog;
#X msg 274 265 earnings_per_share goog;
#X msg 293 326 price_earnings_ratio goog;
#X msg 301 347 price_earnings_growth_ratio goog;
#X msg 309 368 price_sales_ratio goog;
#X msg 317 389 price_book_ratio goog;
#X msg 325 410 short_ratio goog;
#X msg 281 286 fifty_day_moving_avg goog;
#X msg 287 306 twohundred_day_moving_avg goog;
#X msg 282 471 ^DJI;
#X text 318 470 DOW;
#X msg 282 492 ^IXIC;
#X text 322 491 NASDAQ;
#X msg 282 513 ^GSPC;
#X msg 282 534 ^FTSE;
#X msg 282 555 ^GDAXI;
#X text 326 513 S&P 500;
#X text 325 532 FTSE 100;
#X text 329 554 DAX;
#X text 316 639 STRAITS TIMES INDEX;
#X msg 283 639 ^STI;
#X msg 283 618 ^HSI;
#X msg 283 597 ^N225;
#X text 322 618 HANG SENG INDEX;
#X text 325 596 NIKKEI 225;
#X msg 283 576 ^FCHI;
#X text 324 575 CAC 40;
#X text 33 580 2009 mark edward grimm megrimm.net;
#X obj 136 739 declare -lib py;
#X obj 52 452 dat.yahoo;
#X connect 2 0 50 1;
#X connect 3 0 2 0;
#X connect 4 0 50 1;
#X connect 5 0 50 1;
#X connect 6 0 50 1;
#X connect 7 0 2 0;
#X connect 8 0 50 1;
#X connect 9 0 50 0;
#X connect 10 0 50 1;
#X connect 12 0 50 1;
#X connect 13 0 50 1;
#X connect 14 0 50 1;
#X connect 15 0 50 1;
#X connect 16 0 50 1;
#X connect 18 0 50 1;
#X connect 19 0 50 1;
#X connect 20 0 50 1;
#X connect 21 0 50 1;
#X connect 22 0 50 1;
#X connect 23 0 50 1;
#X connect 24 0 50 1;
#X connect 25 0 50 1;
#X connect 26 0 50 1;
#X connect 27 0 50 1;
#X connect 28 0 50 1;
#X connect 29 0 50 1;
#X connect 30 0 50 1;
#X connect 32 0 50 1;
#X connect 34 0 50 1;
#X connect 35 0 50 1;
#X connect 36 0 50 1;
#X connect 41 0 50 1;
#X connect 42 0 50 1;
#X connect 43 0 50 1;
#X connect 46 0 50 1;
#X connect 50 0 1 0;
#X connect 50 0 11 0;
#X connect 50 0 17 0;
