#N canvas 526 102 477 406 10;
#X obj 57 325 append candle x y w h q, f 24;
#X obj 198 302 pointer;
#X obj 60 354 struct candle float x float y float w float h float q
;
#X obj 60 377 filledpolygon q 0 1 0 0 w 0 w h 0 h;
#X msg 57 259 \$1 \$2 \$3 \$4 100;
#X obj 57 234 pack f f f f;
#X obj 244 110 s \$0-pt;
#X obj 37 124 r \$0-pt;
#X floatatom 200 36 5 0 0 0 - - -, f 5;
#X floatatom 244 36 5 0 0 0 - - -, f 5;
#X floatatom 315 33 5 0 0 0 - - -, f 5;
#X floatatom 386 34 5 0 0 0 - - -, f 5;
#X obj 244 69 t b f;
#X obj 200 90 s \$0-x;
#X obj 271 90 s \$0-y;
#X obj 342 92 s \$0-w;
#X obj 413 93 s \$0-h;
#X obj 315 111 s \$0-pt;
#X obj 315 70 t b f;
#X obj 386 112 s \$0-pt;
#X obj 386 71 t b f;
#X obj 57 147 r \$0-x;
#X obj 57 281 t l b;
#X obj 84 303 s \$0-clear;
#X obj 198 153 r \$0-clear;
#X obj 198 177 t b b;
#X obj 80 167 r \$0-y;
#X obj 103 189 r \$0-w;
#X obj 126 209 r \$0-h;
#X msg 268 248 \; pd-\$1 clear;
#X msg 198 282 traverse pd-\$1 \, bang;
#X obj 140 71 inlet;
#X obj 285 226 print;
#X obj 198 211 symbol;
#X obj 284 195 list;
#X connect 1 0 0 5;
#X connect 4 0 22 0;
#X connect 5 0 4 0;
#X connect 7 0 5 0;
#X connect 8 0 13 0;
#X connect 9 0 12 0;
#X connect 10 0 18 0;
#X connect 11 0 20 0;
#X connect 12 0 6 0;
#X connect 12 1 14 0;
#X connect 18 0 17 0;
#X connect 18 1 15 0;
#X connect 20 0 19 0;
#X connect 20 1 16 0;
#X connect 21 0 5 0;
#X connect 22 0 0 0;
#X connect 22 1 23 0;
#X connect 24 0 25 0;
#X connect 25 0 33 0;
#X connect 25 1 34 0;
#X connect 26 0 5 1;
#X connect 27 0 5 2;
#X connect 28 0 5 3;
#X connect 30 0 1 0;
#X connect 31 0 33 1;
#X connect 31 0 34 1;
#X connect 33 0 30 0;
#X connect 34 0 32 0;
#X connect 34 0 29 0;
