#N canvas 542 313 752 524 10;
#X obj 27 424 print OUT;
#X obj 188 298 print OUT2;
#X msg 89 249 reload.;
#X obj 89 276 pycbauth/pycbauth;
#X obj 207 255 r \$0-candles;
#X msg 375 118 0;
#X msg 344 138 offset minute \$1;
#X msg 330 52 0;
#X msg 299 72 offset minute \$1;
#X obj 188 99 fresh/utl.timestamp;
#X obj 188 70 t b b;
#X obj 188 185 pack s s;
#X obj 188 22 bng 15 250 50 0 empty empty empty 17 7 0 10 -262144 -1
-1;
#X obj 375 98 loadbang;
#X obj 299 30 loadbang;
#X obj 89 372 purest_json/json-decode;
#X obj 89 392 list trim;
#X obj 89 353 list trim;
#X obj 89 412 route price ask bid volume trade_id time size, f 24
;
#X obj 195 210 print pack;
#X msg 344 118 -14;
#X obj 233 165 fresh/utl.timestamp;
#X obj 209 273 print candles;
#X msg 299 52 -1;
#X text 349 254 https://api.exchange.coinbase.com/products/BTC-USD/candles?start=2015-09-09T04:00:00.000Z&end=2015-09-09T21:00:00.000Z&granularity=432
;
#X msg 323 208 candles 2015-09-09T04:00:00.000Z 2015-09-09T21:00:00.000Z
432, f 62;
#X msg 81 166 candles;
#X msg 188 234 candles \$1 \$2 60;
#X connect 2 0 3 0;
#X connect 3 0 17 0;
#X connect 3 1 1 0;
#X connect 4 0 3 1;
#X connect 5 0 6 0;
#X connect 6 0 21 1;
#X connect 7 0 8 0;
#X connect 8 0 9 1;
#X connect 9 0 11 0;
#X connect 10 0 9 0;
#X connect 10 1 21 0;
#X connect 11 0 19 0;
#X connect 11 0 27 0;
#X connect 12 0 10 0;
#X connect 13 0 5 0;
#X connect 14 0 23 0;
#X connect 15 0 16 0;
#X connect 15 0 0 0;
#X connect 16 0 18 0;
#X connect 17 0 15 0;
#X connect 20 0 6 0;
#X connect 21 0 11 1;
#X connect 23 0 8 0;
#X connect 25 0 3 1;
#X connect 26 0 3 1;
#X connect 27 0 22 0;
#X connect 27 0 3 1;
