#N canvas 373 23 947 806 12;
#X msg 46 577 help;
#X msg 51 602 doc;
#X msg 54 628 doc+;
#X msg 31 525 reload.;
#X msg 39 552 reload -10;
#X msg 33 424 tickertest2 bid;
#X msg 26 398 accounts;
#X obj 30 710 print OUT;
#X obj 216 681 print OUT2;
#X msg 173 318 stats volume;
#X msg 180 341 stats volume_30day;
#X obj 26 365 s \$0-ticker;
#X obj 223 515 r \$0-ticker;
#X obj 216 490 r \$0-stats;
#X obj 173 369 s \$0-stats;
#X msg 173 245 time iso;
#X msg 178 268 time epoch;
#X obj 229 540 r \$0-time;
#X obj 173 292 s \$0-time;
#X obj 350 372 s \$0-order;
#X obj 235 563 r \$0-order;
#X msg 350 338 order 1 1 buy BTC-USD;
#X obj 26 454 s \$0-misc;
#X obj 242 589 r \$0-misc;
#X obj 37 684 s \$0-response;
#X obj 461 584 purest_json/json-decode;
#X obj 461 557 r \$0-response;
#X obj 461 610 list trim;
#X obj 461 636 print JSONDECODED;
#X obj 545 378 s \$0-delorder;
#X obj 244 615 r \$0-delorder;
#X msg 545 323 delorder all;
#X msg 563 349 delorder 94058379-5203-458d-9c65-5b2767478667;
#X msg 327 278 limit buy 1 1 BTC-USD true;
#X text 587 89 2) type (buy / sell);
#X text 587 71 1) order type (limit / market / stop);
#X text 588 108 3) size of order (ex. 1 = 1 BTC);
#X text 587 129 4) price or order (ex. 1 = 1 USD);
#X text 588 149 5) type of order (BTC-USD = Bitcoin/US Dollar);
#X text 589 170 6) post (true / false);
#X msg 26 337 ticker;
#X obj 30 658 ../pd-pycbauth/pycbauth, f 27;
#X connect 0 0 41 0;
#X connect 1 0 41 0;
#X connect 2 0 41 0;
#X connect 3 0 41 0;
#X connect 4 0 41 0;
#X connect 5 0 22 0;
#X connect 6 0 22 0;
#X connect 9 0 14 0;
#X connect 10 0 14 0;
#X connect 12 0 41 1;
#X connect 13 0 41 1;
#X connect 15 0 18 0;
#X connect 16 0 18 0;
#X connect 17 0 41 1;
#X connect 20 0 41 1;
#X connect 21 0 19 0;
#X connect 23 0 41 1;
#X connect 25 0 27 0;
#X connect 26 0 25 0;
#X connect 27 0 28 0;
#X connect 30 0 41 1;
#X connect 31 0 29 0;
#X connect 32 0 29 0;
#X connect 33 0 19 0;
#X connect 40 0 11 0;
#X connect 41 0 7 0;
#X connect 41 0 24 0;
#X connect 41 1 8 0;
