#N canvas 115 297 569 409 10;
#X obj 43 376 print;
#X msg 52 55 reload .;
#X msg 43 35 detach 1;
#X obj 43 244 purest_json/json-decode;
#X obj 43 266 purest_json/json-decode;
#X obj 43 308 route price;
#X obj 43 287 list trim;
#X floatatom 85 377 7 0 0 0 - - -, f 7;
#X obj 85 336 symbol;
#X obj 85 355 zexy/symbol2list;
#X text 101 33 <-- 1) have to "detach 1" first;
#X text 406 98 <-- 2) open websocket;
#X msg 151 99 open wss://ws-feed.exchange.coinbase.com;
#X msg 158 120 open wss://echo.websocket.org;
#X text 113 53 <-- 3) stop the feed;
#X msg 150 186 close;
#X obj 151 144 t a b;
#X msg 56 199 detach 1;
#X obj 178 164 s \$0-detach;
#X obj 56 180 r \$0-detach;
#X text 198 185 <-- doesnt work;
#X obj 43 221 pyws/pyws;
#X connect 1 0 21 0;
#X connect 2 0 21 0;
#X connect 3 0 4 0;
#X connect 4 0 6 0;
#X connect 5 0 0 0;
#X connect 5 0 8 0;
#X connect 6 0 5 0;
#X connect 8 0 9 0;
#X connect 9 0 7 0;
#X connect 12 0 16 0;
#X connect 13 0 16 0;
#X connect 15 0 21 1;
#X connect 16 0 21 1;
#X connect 16 1 18 0;
#X connect 17 0 21 0;
#X connect 19 0 17 0;
#X connect 21 0 3 0;
