#N canvas 0 22 1 1 10;
#X obj 122 111 pyext pycbauth cbauth, f 27;
#X obj 163 58 inlet;
#X obj 333 77 inlet;
#X obj 283 172 outlet;
#X obj 133 177 outlet;
#X connect 0 0 4 0;
#X connect 0 1 3 0;
#X connect 1 0 0 0;
#X connect 2 0 0 1;
